<?xml version="1.0" standalone="no"?>
<!DOCTYPE svg PUBLIC "-//W3C//DTD SVG 20010904//EN"
 "http://www.w3.org/TR/2001/REC-SVG-20010904/DTD/svg10.dtd">
<svg version="1.0" xmlns="http://www.w3.org/2000/svg"
 width="55.000000pt" height="56.000000pt" viewBox="0 0 55.000000 56.000000"
 preserveAspectRatio="xMidYMid meet">

<g transform="translate(0.000000,56.000000) scale(0.100000,-0.100000)"
fill="#000000" stroke="none">
<path d="M325 469 c-40 -12 -55 -34 -55 -84 0 -45 -22 -67 -55 -54 -11 4 -37
8 -57 8 -28 1 -41 -5 -57 -25 -29 -37 -28 -94 3 -123 27 -25 96 -32 121 -11 8
6 23 9 35 5 15 -5 19 -12 14 -30 -4 -18 1 -31 20 -49 32 -33 103 -37 129 -8
23 25 22 85 -1 105 -27 24 -35 21 -17 -7 29 -44 -8 -111 -56 -104 -13 2 -30
15 -39 31 -13 24 -13 30 0 54 9 15 27 33 40 40 l25 13 -26 0 c-14 0 -34 -9
-44 -20 -10 -12 -25 -19 -34 -18 -20 4 -23 106 -3 130 13 16 17 16 43 3 39
-21 82 -19 112 5 29 23 43 70 28 98 -11 21 -68 49 -78 38 -3 -3 0 -6 9 -6 21
0 48 -32 48 -57 0 -26 -34 -69 -60 -76 -11 -3 -30 3 -45 15 -36 28 -34 72 6
109 17 16 30 29 28 28 -2 0 -17 -5 -34 -10z m-107 -155 c49 -34 10 -134 -52
-134 -57 0 -74 100 -23 135 27 19 47 19 75 -1z"/>
</g>
</svg>
